<?xml version="1.0" standalone="no"?>
<!DOCTYPE svg PUBLIC "-//W3C//DTD SVG 20010904//EN"
 "http://www.w3.org/TR/2001/REC-SVG-20010904/DTD/svg10.dtd">
<svg version="1.0" xmlns="http://www.w3.org/2000/svg"
 width="500.000000pt" height="412.000000pt" viewBox="0 0 500.000000 412.000000"
 preserveAspectRatio="xMidYMid meet">

<g transform="translate(0.000000,412.000000) scale(0.100000,-0.100000)"
fill="#000000" stroke="none">
<path d="M2530 4095 c-14 -16 -5 -35 16 -35 8 0 14 -2 14 -4 0 -2 3 -12 7 -22
5 -13 3 -15 -8 -9 -8 5 -7 1 4 -12 24 -27 22 -30 -23 -38 -26 -4 -56 -1 -87 9
-99 32 -179 35 -206 6 -9 -10 -9 -11 1 -6 6 4 12 3 12 -3 0 -5 -7 -11 -15 -13
-29 -6 14 -70 57 -84 26 -9 38 -9 41 -1 2 6 11 8 23 3 19 -8 19 -8 -1 -16 -19
-8 -19 -9 3 -9 56 -2 0 -41 -59 -41 -16 0 -29 -4 -29 -8 0 -5 -8 -19 -19 -30
-16 -19 -22 -21 -51 -11 -26 9 -48 8 -111 -6 -44 -10 -79 -23 -79 -28 0 -6 -7
-18 -15 -27 -20 -23 -32 -115 -16 -134 6 -7 9 -20 7 -27 -16 -51 -15 -78 4
-84 13 -4 22 -20 27 -48 8 -36 12 -42 33 -41 14 1 44 9 68 18 38 15 46 15 79
1 28 -12 34 -18 25 -27 -24 -24 -12 -36 41 -42 28 -3 63 -7 76 -9 38 -6 80
-65 74 -103 -4 -27 0 -35 31 -60 42 -34 46 -49 11 -40 -20 5 -25 3 -25 -13 0
-10 -8 -21 -17 -25 -10 -3 -26 -11 -36 -18 -14 -11 -19 -11 -26 1 -7 11 -10 9
-15 -6 -6 -19 -18 -21 -194 -26 -252 -9 -242 -6 -274 -78 -21 -48 -31 -59 -50
-59 -28 0 -42 -9 -51 -32 -17 -46 -121 0 -148 64 -16 38 -48 73 -69 73 -8 0
-17 11 -20 25 -9 37 -67 40 -100 5 -15 -16 -34 -25 -55 -25 -19 0 -39 -8 -50
-20 -10 -11 -29 -20 -43 -20 -14 0 -35 -9 -47 -20 -12 -12 -38 -23 -58 -27
-30 -4 -37 -2 -52 21 -21 32 -22 87 -3 143 20 56 2 48 -53 -23 -23 -30 -45
-54 -49 -54 -4 0 -10 -19 -13 -42 -3 -24 -14 -50 -24 -58 -11 -9 -17 -25 -15
-40 3 -20 1 -22 -9 -13 -15 15 -49 0 -49 -22 0 -7 -18 -44 -39 -81 -37 -64
-39 -69 -25 -95 19 -37 18 -61 -5 -144 -22 -77 -57 -229 -66 -287 -3 -21 -10
-38 -15 -38 -17 0 -11 -36 10 -55 11 -10 20 -26 20 -36 0 -22 59 -33 137 -25
82 7 118 37 106 87 -3 17 4 11 26 -21 17 -25 31 -50 31 -56 0 -11 -98 -23
-204 -25 -78 -2 -18 -15 78 -18 82 -2 169 16 163 34 -5 11 70 105 84 105 4 0
13 -18 19 -40 9 -35 31 -58 89 -97 2 -1 -15 -20 -37 -41 -22 -21 -37 -43 -34
-49 8 -12 51 -23 117 -30 28 -3 53 -10 57 -17 5 -7 8 -5 8 7 0 9 7 17 16 17
13 0 15 -7 11 -32 -15 -82 -21 -102 -39 -120 -10 -10 -17 -22 -14 -27 3 -4 -8
-7 -24 -6 -17 1 -30 -2 -30 -7 0 -4 5 -8 11 -8 5 0 7 -5 4 -10 -4 -6 -1 -17 5
-25 20 -25 3 -17 -25 10 -14 14 -25 30 -25 35 0 19 -37 10 -60 -15 -31 -33
-48 -20 -18 14 13 14 30 35 38 46 21 29 -128 -130 -163 -173 -16 -20 -53 -63
-83 -95 -30 -32 -52 -62 -49 -67 3 -4 29 -11 58 -15 28 -3 72 -10 97 -15 103
-20 120 -21 120 -7 0 55 137 93 415 113 51 4 91 13 110 25 17 10 59 35 95 55
56 33 169 111 208 144 14 13 16 50 3 50 -5 0 -22 -5 -37 -10 -28 -11 -65 -3
-131 27 -29 13 -30 16 -19 38 7 13 35 46 63 72 28 26 53 58 56 71 3 12 1 20
-4 16 -5 -3 -9 2 -9 10 0 21 14 20 35 0 15 -15 15 -18 -4 -38 -12 -12 -21 -26
-21 -31 0 -4 -8 -14 -17 -21 -16 -12 -12 -13 29 -14 25 0 71 -9 101 -21 l54
-21 12 -91 c13 -102 65 -236 91 -238 21 -1 51 -7 54 -11 2 -2 10 -17 18 -35
l16 -31 -47 -6 c-25 -3 -54 -6 -65 -6 -14 -1 -17 -7 -13 -25 2 -16 -3 -31 -14
-41 -10 -9 -16 -21 -13 -28 6 -15 -52 -83 -62 -73 -4 4 3 19 17 34 l24 27 -32
-25 c-18 -13 -32 -30 -32 -36 -1 -7 -7 -13 -14 -13 -8 0 -22 -9 -33 -21 -22
-24 -66 -49 -88 -49 -8 0 -33 17 -56 39 -29 26 -48 37 -61 34 -12 -4 -29 3
-42 15 -17 16 -35 21 -75 20 -64 0 -73 -10 -24 -28 38 -13 95 -51 88 -57 -2
-2 -19 5 -38 17 -62 36 -168 62 -168 40 0 -5 11 -10 25 -10 31 0 135 -46 135
-59 0 -14 -13 -14 -26 -1 -16 16 -81 15 -100 0 -11 -10 -40 -14 -98 -12 -77 2
-83 1 -119 -29 -20 -17 -37 -35 -37 -41 0 -6 17 -33 37 -61 49 -66 27 -57 -27
11 -50 64 -65 71 -93 44 -20 -20 -20 -22 -4 -40 9 -10 17 -22 17 -26 0 -3 34
-48 75 -99 41 -51 75 -95 75 -98 0 -4 -33 -20 -72 -36 -52 -20 -72 -33 -70
-45 2 -11 -8 -18 -32 -22 -19 -4 -39 -13 -46 -21 -7 -8 -27 -15 -46 -15 -23 0
-38 -7 -48 -22 -33 -46 -14 -50 46 -11 36 24 51 28 115 28 50 -1 74 3 77 12 3
7 11 13 17 13 8 0 6 -7 -4 -18 -15 -17 -15 -19 13 -35 18 -11 31 -14 35 -7 8
13 25 13 25 0 0 -5 -7 -10 -15 -10 -8 0 -15 -2 -15 -5 0 -12 53 -80 62 -80 6
0 13 -6 16 -13 9 -29 -34 -6 -50 27 -37 74 -114 119 -183 108 -38 -6 -125 -46
-125 -58 0 -4 12 -15 27 -25 37 -25 85 -46 78 -34 -3 6 5 10 19 10 20 0 26 -5
26 -23 0 -16 13 -30 45 -49 25 -15 45 -32 45 -38 0 -12 -26 0 -70 30 -14 10
-51 32 -83 49 l-59 32 -43 -22 c-27 -14 -48 -33 -56 -50 -6 -16 -15 -29 -20
-29 -15 0 -10 10 21 50 27 34 30 44 26 90 -3 35 -10 56 -23 65 -17 14 -17 14
3 15 18 0 104 36 104 44 0 1 -36 -9 -79 -24 -44 -15 -95 -30 -115 -34 -25 -5
-34 -11 -29 -21 3 -8 16 -15 29 -15 13 0 24 -4 24 -8 0 -4 -15 -6 -32 -4 -18
1 -85 -6 -148 -17 -68 -12 -116 -16 -118 -10 -2 5 -13 9 -25 9 -18 0 -19 -2
-7 -10 11 -7 8 -11 -15 -20 -21 -8 -31 -8 -33 -1 -2 6 -10 11 -18 11 -9 0 -13
-4 -10 -8 3 -5 -9 -6 -26 -4 -20 3 -29 1 -24 -6 4 -6 -2 -8 -14 -5 -11 3 -20
0 -20 -6 0 -6 -5 -11 -11 -11 -5 0 -7 4 -4 10 3 5 1 10 -6 10 -15 0 -82 -23
-89 -30 -3 -3 -25 -6 -49 -8 -52 -3 -96 -28 -165 -92 -47 -43 -152 -177 -212
-270 -16 -25 -33 -48 -39 -52 -6 -5 -5 -8 2 -8 7 0 31 20 54 45 31 34 49 45
71 45 21 0 37 9 56 32 102 124 201 178 372 206 145 24 171 24 194 4 12 -11 20
-13 23 -6 3 8 14 8 40 -1 32 -11 41 -10 75 7 l38 20 45 -26 c27 -17 45 -34 45
-45 0 -19 31 -34 63 -31 10 1 24 -11 34 -29 17 -28 22 -30 133 -46 133 -19
147 -21 177 -30 19 -6 22 -2 33 49 13 63 51 116 83 116 42 1 67 31 74 90 6 55
25 82 66 96 18 6 59 -30 104 -92 14 -18 26 -25 37 -21 23 9 20 33 -9 71 -14
18 -25 37 -25 41 0 8 13 -6 65 -67 l23 -28 44 25 c54 30 175 154 211 215 14
25 35 77 47 115 36 119 28 111 132 133 88 19 179 34 296 48 28 4 52 10 52 15
0 18 48 32 116 34 40 2 77 5 82 9 5 3 12 19 15 36 4 16 11 30 16 30 5 0 25
-21 44 -47 19 -27 47 -59 61 -72 26 -24 26 -25 26 -189 l0 -164 -30 6 c-17 3
-30 1 -30 -4 0 -6 14 -13 30 -16 36 -8 40 -24 6 -24 -18 0 -27 -8 -34 -30 -12
-32 -10 -34 31 -44 l28 -7 -3 -97 -3 -97 -81 0 c-59 1 -88 5 -107 18 -14 9
-30 17 -34 17 -4 0 8 -10 27 -23 29 -18 49 -22 117 -22 l83 0 0 -32 0 -33 -69
0 c-39 0 -84 7 -106 16 -47 19 -39 29 12 15 48 -14 119 -14 88 -1 -11 5 -34 9
-52 9 -17 1 -35 6 -38 11 -3 6 -17 10 -31 10 -14 0 -39 7 -56 16 -40 21 -135
14 -233 -15 -38 -12 -80 -24 -92 -26 -13 -3 -46 -19 -74 -36 -28 -16 -54 -27
-57 -24 -4 3 0 10 8 15 11 7 11 10 2 10 -7 0 -17 -12 -22 -26 -6 -14 -14 -22
-20 -19 -12 7 -99 -56 -176 -128 -63 -58 -148 -174 -120 -164 10 4 22 7 27 7
6 0 34 22 62 49 57 54 91 71 139 71 16 0 58 13 92 29 95 45 164 64 226 62 45
-1 61 3 75 19 14 15 31 20 70 20 48 0 56 -4 90 -39 24 -24 45 -37 59 -36 11 1
195 3 409 4 l387 1 0 1230 0 1230 -300 0 -300 0 -1 38 c0 20 0 205 1 411 0
334 -1 372 -15 361 -8 -7 -15 -18 -15 -26 0 -7 -19 -19 -41 -26 -32 -9 -45
-19 -55 -45 -17 -39 -30 -42 -38 -8 -7 26 17 85 33 85 5 0 31 18 57 40 27 22
54 40 61 40 10 0 13 23 13 85 0 47 -3 85 -7 84 -5 0 -17 -4 -28 -8 -15 -6 -26
-2 -42 16 -13 13 -23 28 -23 34 0 5 -11 2 -25 -7 -23 -15 -32 -15 -80 -4 -44
11 -59 11 -86 0 -31 -13 -110 -71 -159 -118 -38 -36 -79 -54 -106 -48 -32 8
-33 60 -1 94 22 24 22 25 0 11 -12 -7 -31 -29 -42 -48 -28 -51 -76 -95 -95
-88 -11 5 -16 20 -16 49 0 77 11 119 34 128 18 8 17 9 -11 9 -17 1 -35 5 -38
11 -4 6 13 8 45 5 36 -3 59 0 75 11 13 9 25 14 27 13 7 -7 88 37 88 48 0 6 6
13 12 15 10 4 8 15 -7 46 -19 40 -22 42 -60 40 -49 -2 -88 17 -83 40 3 9 11
15 19 13 8 -2 45 -6 83 -9 57 -4 70 -2 78 12 5 9 18 16 28 16 17 0 18 3 9 28
-5 15 -17 33 -26 40 -9 6 -13 12 -9 12 4 0 0 7 -8 16 -9 8 -20 12 -26 9 -5 -3
-10 -2 -10 3 0 5 32 7 73 5 51 -3 68 -1 57 6 -8 6 -25 8 -37 5 -13 -4 -36 -1
-52 4 -23 8 -32 7 -41 -3z m210 -434 c0 -5 -7 -15 -17 -22 -13 -11 -17 -11
-20 -1 -3 6 -9 10 -14 6 -5 -3 -9 2 -9 10 0 11 9 16 30 16 17 0 30 -4 30 -9z
m-110 -571 c0 -5 -7 -10 -15 -10 -8 0 -15 5 -15 10 0 6 7 10 15 10 8 0 15 -4
15 -10z m-236 -96 c5 -14 4 -15 -9 -4 -17 14 -19 20 -6 20 5 0 12 -7 15 -16z
m-59 -23 c-4 -7 -60 -10 -158 -9 -151 2 -151 2 -46 7 58 4 129 7 158 9 35 2
51 0 46 -7z m-342 -8 c-7 -2 -21 -2 -30 0 -10 3 -4 5 12 5 17 0 24 -2 18 -5z
m-43 -23 c0 -5 -7 -10 -15 -10 -8 0 -15 -4 -15 -9 0 -14 -50 -71 -63 -71 -6 0
-2 10 9 23 11 12 28 34 37 50 17 26 47 37 47 17z m590 -24 c0 -2 -9 -2 -20 1
-11 3 -20 9 -20 15 0 5 9 4 20 -2 11 -6 20 -12 20 -14z m-975 4 c-3 -5 -13
-10 -21 -10 -8 0 -14 5 -14 10 0 6 9 10 21 10 11 0 17 -4 14 -10z m453 -16 c1
-15 7 -33 13 -40 17 -21 0 -83 -25 -88 -48 -10 -76 -13 -76 -8 0 15 36 42 56
42 21 0 22 2 12 31 -6 17 -21 35 -34 41 -33 15 -30 28 5 28 17 0 33 5 36 10 9
15 10 13 13 -16z m366 17 c3 -5 -3 -11 -15 -14 -16 -4 -18 -3 -8 9 13 16 16
17 23 5z m-142 -18 c-22 -9 -1 -23 25 -17 18 5 24 3 19 -5 -9 -14 -59 -14 -73
0 -18 18 -71 0 -108 -38 -19 -20 -35 -42 -35 -49 0 -7 -5 -16 -11 -20 -20 -12
0 48 24 75 30 32 95 61 137 60 19 0 29 -3 22 -6z m484 -56 c3 -3 -27 1 -67 9
-67 13 -99 27 -99 44 0 7 156 -42 166 -53z m-1121 43 c-3 -5 -11 -10 -16 -10
-6 0 -7 5 -4 10 3 6 11 10 16 10 6 0 7 -4 4 -10z m-107 -19 c3 -10 -4 -11 -27
-6 -20 4 -31 3 -31 -5 0 -7 -5 -8 -17 -1 -13 7 -24 3 -46 -15 -16 -13 -34 -24
-40 -24 -16 0 51 53 77 62 31 10 79 4 84 -11z m907 7 c3 -3 -2 -11 -11 -18
-13 -11 -17 -11 -24 -1 -6 10 -13 10 -34 -4 -31 -20 -36 -3 -5 19 20 13 62 16
74 4z m-753 -48 c3 -16 1 -30 -4 -30 -4 0 -8 14 -8 30 0 17 2 30 4 30 2 0 6
-13 8 -30z m-94 -26 c33 -37 48 -82 16 -50 -11 12 -36 16 -97 16 -45 0 -89 -4
-97 -9 -18 -12 -33 -4 -23 12 4 7 8 16 8 22 0 5 17 19 38 31 57 31 113 23 155
-22z m59 19 c19 -29 26 -115 11 -145 -5 -10 -15 -18 -23 -18 -20 0 -19 16 1
24 25 9 14 112 -15 132 -24 17 -28 34 -6 34 8 0 23 -12 32 -27z m183 2 c-7 -8
-17 -12 -23 -8 -6 4 -3 11 8 19 23 17 32 10 15 -11z m75 -6 c5 -14 1 -27 -10
-38 -17 -15 -17 -14 -12 8 4 14 1 31 -5 38 -8 10 -7 13 5 13 9 0 19 -10 22
-21z m382 -9 c28 -17 53 -63 41 -75 -2 -2 -28 2 -58 10 -30 8 -72 15 -93 17
-27 1 -36 6 -32 16 3 7 5 17 5 22 0 11 48 28 80 29 14 1 40 -8 57 -19z m-927
-12 c0 -9 4 -8 10 2 8 13 10 12 10 -4 0 -13 -5 -17 -20 -13 -19 5 -20 0 -20
-64 0 -39 -4 -69 -10 -69 -6 0 -10 33 -10 80 0 73 2 80 20 80 11 0 20 -6 20
-12z m-256 -14 c4 -10 1 -14 -6 -12 -15 5 -23 28 -10 28 5 0 13 -7 16 -16z
m194 3 c19 -14 14 -26 -8 -20 -11 3 -20 1 -20 -4 0 -5 -9 -9 -20 -10 -11 -1
-20 2 -20 8 0 5 4 9 10 9 5 0 7 6 4 14 -7 17 33 19 54 3z m558 -62 c-10 -39
-21 -29 -20 18 1 59 4 66 16 34 5 -15 7 -39 4 -52z m515 32 c-8 -8 -11 -3 -11
19 1 25 2 27 11 11 8 -14 8 -22 0 -30z m-684 -39 c-2 -13 -4 -3 -4 22 0 25 2
35 4 23 2 -13 2 -33 0 -45z m213 33 c0 -12 -20 -25 -27 -18 -7 7 6 27 18 27 5
0 9 -4 9 -9z m190 5 c0 -3 -4 -8 -10 -11 -5 -3 -10 -1 -10 4 0 6 5 11 10 11 6
0 10 -2 10 -4z m554 -51 c-11 -16 -14 -35 -10 -55 6 -33 -7 -39 -37 -16 -16
12 -17 18 -7 38 18 33 64 81 68 69 2 -5 -4 -21 -14 -36z m204 -6 c-13 -39 -38
-79 -38 -61 0 14 42 103 47 98 2 -1 -2 -18 -9 -37z m-1734 -3 c-6 -16 -8 -17
-16 -2 -11 19 0 42 13 29 6 -6 7 -18 3 -27z m796 -16 c0 -22 -4 -40 -10 -40
-5 0 -9 18 -8 40 1 22 5 40 10 40 4 0 8 -18 8 -40z m-876 11 c5 -8 -84 -3 -93
5 -2 2 16 4 42 4 25 0 48 -4 51 -9z m726 -48 c0 -57 -5 -53 -14 11 -5 33 -4
46 3 41 6 -3 11 -27 11 -52z m314 39 c2 -4 -6 -9 -20 -10 -13 -1 -24 3 -24 8
0 12 37 14 44 2z m366 -2 c0 -5 -2 -10 -4 -10 -3 0 -8 5 -11 10 -3 6 -1 10 4
10 6 0 11 -4 11 -10z m-293 -54 c15 -6 15 -9 3 -16 -18 -11 25 -30 88 -37 46
-6 58 -23 16 -23 -42 0 -128 46 -141 77 -18 38 -16 65 2 32 8 -15 22 -30 32
-33z m143 34 c-27 -20 -60 -32 -60 -22 0 8 59 39 75 40 6 1 -1 -7 -15 -18z
m-1204 -16 c-4 -9 -9 -15 -11 -12 -3 3 -3 13 1 22 4 9 9 15 11 12 3 -3 3 -13
-1 -22z m414 -17 c8 -3 -6 -6 -31 -6 -42 -1 -47 2 -51 23 l-5 24 36 -18 c20
-10 43 -20 51 -23z m366 28 c10 -26 -1 -35 -13 -10 -6 14 -7 25 -2 25 5 0 12
-7 15 -15z m-266 -15 c-6 -11 -12 -20 -14 -20 -2 0 -2 9 1 20 3 11 9 20 15 20
5 0 4 -9 -2 -20z m880 -45 c18 -19 38 -31 43 -28 6 3 7 1 4 -4 -8 -13 27 -46
37 -36 4 5 6 3 4 -2 -1 -6 8 -22 21 -35 13 -14 21 -19 17 -12 -4 6 -4 12 0 12
9 0 84 -83 84 -94 0 -6 12 -23 27 -38 19 -20 24 -31 16 -39 -7 -7 -20 1 -44
26 -57 62 -230 230 -245 238 -15 8 -20 47 -6 47 4 0 23 -16 42 -35z m16 8 c-7
-7 -26 7 -26 19 0 6 6 6 15 -2 9 -7 13 -15 11 -17z m-1428 -2 c-7 -11 -16 -17
-22 -14 -5 4 -7 -1 -3 -9 7 -18 -18 -57 -29 -45 -4 4 -2 7 5 7 7 0 9 5 6 10
-10 17 18 70 38 70 14 0 15 -3 5 -19z m276 3 c9 -23 -3 -81 -20 -95 -8 -6 -14
-18 -14 -25 0 -8 -5 -14 -10 -14 -6 0 -16 -11 -22 -25 -6 -14 -14 -25 -19 -25
-4 0 8 29 27 65 20 38 34 80 34 100 0 37 13 47 24 19z m201 6 c-3 -5 -10 -10
-16 -10 -5 0 -9 5 -9 10 0 6 7 10 16 10 8 0 12 -4 9 -10z m1255 -21 c-7 -11
-14 -19 -16 -16 -7 7 7 37 17 37 6 0 5 -9 -1 -21z m-531 -5 c10 -9 -55 -3 -69
6 -10 6 -2 7 25 3 22 -3 42 -7 44 -9z m-835 -12 c-7 -4 -9 -24 -5 -52 6 -42 8
-45 40 -50 32 -5 33 -6 16 -20 -16 -13 -21 -11 -61 35 l-44 49 27 28 c15 15
29 25 32 22 3 -3 1 -8 -5 -12z m106 -14 c14 -18 16 -27 8 -42 -9 -17 -12 -15
-24 20 -16 46 -16 44 -8 44 3 0 14 -10 24 -22z m440 -86 c0 -55 2 -141 5 -193
5 -111 -8 -55 -19 76 -3 44 -9 106 -12 137 -3 31 -3 62 1 67 17 29 25 2 25
-87z m185 70 c-3 -3 -11 0 -18 7 -9 10 -8 11 6 5 10 -3 15 -9 12 -12z m-448
-45 c35 -33 50 -64 36 -77 -4 -4 -21 -10 -38 -13 -29 -6 -29 -6 -5 5 14 7 26
13 28 14 11 7 -26 53 -58 72 -22 12 -40 27 -40 33 0 18 43 -1 77 -34z m334 -4
c-9 -16 -10 -14 -11 12 0 21 3 26 11 18 8 -8 8 -16 0 -30z m289 27 c0 -5 -2
-10 -4 -10 -3 0 -8 5 -11 10 -3 6 -1 10 4 10 6 0 11 -4 11 -10z m418 -25 c-6
-14 -13 -23 -16 -21 -7 7 9 46 18 46 5 0 4 -11 -2 -25z m-1396 3 c-16 -16 -15
-23 6 -44 18 -19 23 -84 8 -119 -8 -19 -8 -19 -17 3 -5 15 -5 31 1 42 14 25
13 26 -15 53 l-26 23 21 27 c12 15 24 27 28 27 3 0 1 -5 -6 -12z m745 -30 c-3
-8 -6 -5 -6 6 -1 11 2 17 5 13 3 -3 4 -12 1 -19z m358 -68 c44 -44 75 -80 70
-80 -5 0 1 -9 14 -21 12 -12 25 -18 28 -15 4 3 17 -4 30 -16 24 -23 32 -45 11
-31 -7 4 -20 8 -28 10 -22 3 -162 151 -155 163 3 6 -3 10 -14 10 -12 0 -21 5
-21 12 0 6 -7 20 -17 30 -9 10 -12 18 -7 18 5 0 45 -36 89 -80z m-405 -12 c0
-32 -4 -58 -10 -58 -6 0 -10 31 -10 73 0 50 3 67 10 57 5 -8 10 -41 10 -72z
m-403 40 c-3 -7 -5 -2 -5 12 0 14 2 19 5 13 2 -7 2 -19 0 -25z m-637 -8 c6
-11 9 -20 7 -20 -2 0 -12 9 -22 20 -10 11 -13 20 -7 20 6 0 16 -9 22 -20z
m900 10 c0 -5 -12 -10 -27 -9 l-28 1 25 8 c14 4 26 8 28 9 1 1 2 -3 2 -9z
m281 -30 c19 0 41 6 48 13 11 10 12 6 6 -23 -11 -56 -49 -150 -60 -147 -12 4
-85 184 -77 191 3 4 15 -3 27 -14 13 -12 35 -20 56 -20z m-284 -5 c-4 -8 -2
-17 4 -20 5 -4 7 -10 4 -15 -10 -16 7 -61 20 -56 8 3 15 -6 17 -25 4 -24 -1
-33 -29 -51 -18 -13 -33 -26 -33 -30 0 -5 -7 -8 -14 -8 -8 0 -21 -12 -29 -27
-7 -16 -18 -27 -24 -26 -6 1 -19 -7 -28 -17 -10 -11 -23 -20 -29 -20 -6 0 10
19 34 43 48 46 100 124 100 150 0 9 -9 21 -20 27 -11 6 -20 17 -20 25 0 28 20
65 36 65 10 0 14 -5 11 -15z m947 0 c4 -12 -3 -15 -32 -14 l-37 1 30 13 c17 8
31 14 31 15 1 0 4 -7 8 -15z m-1863 -33 c-13 -4 -41 16 -41 29 0 5 12 2 26 -8
15 -9 21 -19 15 -21z m50 11 c13 -16 12 -17 -3 -4 -10 7 -18 15 -18 17 0 8 8
3 21 -13z m168 -9 c-31 -33 -65 -46 -101 -39 -42 10 -34 23 12 19 28 -2 48 4
72 21 43 31 47 30 17 -1z m1656 -14 c-27 -12 -35 -12 -35 0 0 6 12 10 28 9 24
0 25 -1 7 -9z m-1355 -4 c0 -3 -4 -8 -10 -11 -5 -3 -10 -1 -10 4 0 6 5 11 10
11 6 0 10 -2 10 -4z m1277 -11 c0 -8 -4 -12 -9 -9 -4 3 -8 9 -8 15 0 5 4 9 8
9 5 0 9 -7 9 -15z m-1695 -63 c16 -24 28 -46 25 -48 -3 -3 -14 10 -26 29 -11
18 -29 42 -41 52 -11 10 -20 22 -20 28 0 15 29 -13 62 -61z m127 30 c-11 -33
-36 -49 -52 -33 -7 7 1 21 23 41 18 17 34 29 36 27 2 -2 -1 -18 -7 -35z m826
9 c3 -5 1 -12 -5 -16 -5 -3 -10 1 -10 9 0 18 6 21 15 7z m853 -9 c6 -18 -15
-14 -22 4 -4 10 -1 14 6 12 6 -2 14 -10 16 -16z m132 4 c0 -9 -16 -15 -47 -19
-50 -5 -73 -1 -73 15 0 5 4 7 8 4 5 -3 22 -1 38 4 44 13 74 12 74 -4z m-910
-53 c0 -45 -8 -39 -16 11 -4 26 -2 36 5 31 6 -3 11 -22 11 -42z m-66 -48 c5
-57 4 -59 -9 -30 -8 17 -14 48 -15 70 0 60 18 29 24 -40z m741 55 c9 -10 20
-19 24 -18 21 2 35 -9 80 -66 50 -63 65 -90 36 -66 -30 25 -14 3 22 -31 25
-22 29 -24 14 -6 -14 15 -20 27 -14 27 5 0 18 -9 28 -20 18 -20 18 -21 -2 -41
l-20 -20 -33 38 c-18 21 -66 73 -106 116 -46 49 -71 83 -68 92 8 20 17 19 39
-5z m-1247 -52 c-3 -7 -20 -15 -39 -18 -26 -4 -34 -10 -33 -26 0 -11 -10 -28
-22 -37 -22 -16 -22 -16 -26 29 -3 48 -5 47 62 57 50 8 62 7 58 -5z m569 -20
c-3 -8 -6 -5 -6 6 -1 11 2 17 5 13 3 -3 4 -12 1 -19z m583 -8 c32 -28 36 -48
8 -38 -7 3 -16 6 -21 7 -4 0 -21 8 -37 16 -30 16 -43 39 -15 29 8 -4 15 -1 15
5 0 18 15 13 50 -19z m-1833 14 c-3 -3 -12 -4 -19 -1 -8 3 -5 6 6 6 11 1 17
-2 13 -5z m468 -24 c13 -5 14 -9 5 -9 -8 0 -24 4 -35 9 -13 5 -14 9 -5 9 8 0
24 -4 35 -9z m85 0 c0 -5 -4 -10 -9 -10 -6 0 -13 5 -16 10 -3 6 1 10 9 10 9 0
16 -4 16 -10z m1000 -7 c16 -6 27 -9 48 -11 7 -1 11 -6 7 -12 -3 -5 -15 -6
-29 0 -16 6 -32 4 -51 -6 -33 -17 -54 -12 -85 21 l-22 24 58 -5 c33 -3 66 -8
74 -11z m-504 -18 c-22 -16 -46 -20 -46 -7 0 15 13 22 39 22 25 -1 25 -1 7
-15z m84 -1 c0 -2 -7 -4 -15 -4 -8 0 -15 4 -15 10 0 5 7 7 15 4 8 -4 15 -8 15
-10z m185 -13 c3 -5 -8 -9 -24 -9 -17 1 -28 5 -25 10 7 11 41 10 49 -1z m156
-36 c57 -48 72 -55 62 -27 -5 13 -3 15 7 5 11 -10 8 -19 -14 -48 -35 -45 -62
-44 -58 3 3 24 -1 32 -13 32 -9 0 -26 10 -38 23 -12 13 -30 26 -40 30 -10 4
-15 11 -12 17 14 22 55 8 106 -35z m342 24 c24 -10 32 -10 35 -1 5 17 22 15
22 -2 0 -8 4 -17 9 -20 5 -4 7 4 4 16 -5 21 -4 22 10 8 10 -9 14 -24 11 -37
-6 -22 -7 -22 -35 -6 -16 9 -32 13 -36 9 -4 -5 1 -13 11 -20 10 -6 39 -26 63
-43 24 -18 48 -33 53 -33 6 0 10 -4 10 -10 0 -5 15 -10 33 -10 32 0 57 -14 57
-33 0 -4 -4 -5 -10 -2 -14 9 -12 -7 4 -47 8 -19 13 -43 11 -54 -2 -10 -4 -27
-4 -36 -1 -10 -5 -18 -10 -18 -4 0 -8 25 -7 56 0 42 -4 59 -17 69 -9 7 -17 22
-17 34 0 14 -6 21 -20 21 -11 0 -40 16 -66 35 -25 19 -58 38 -72 41 -15 3 -36
10 -47 14 -11 5 -42 9 -68 8 -26 -1 -52 3 -58 9 -14 14 68 27 107 17 26 -7 28
-6 15 9 -15 18 -66 23 -76 7 -4 -6 -15 -4 -29 5 -24 16 -29 15 -121 -20 l-20
-8 20 16 c18 15 19 16 2 17 -10 0 -15 5 -12 10 5 8 11 8 19 0 9 -7 24 -6 49 3
44 15 139 13 180 -4z m-590 -1 c9 0 17 -3 17 -9 0 -5 -17 -9 -38 -9 -21 0 -48
-7 -60 -16 -20 -14 -22 -14 -22 1 0 25 -42 14 -57 -15 -11 -21 -13 -22 -13 -6
0 11 -8 28 -17 39 -10 11 -13 18 -8 14 6 -3 17 -1 25 4 9 6 44 7 85 3 39 -4
78 -7 88 -6z m327 2 c0 -5 -4 -10 -10 -10 -5 0 -10 5 -10 10 0 6 5 10 10 10 6
0 10 -4 10 -10z m-695 -39 c-16 -10 -40 -30 -52 -45 -23 -26 -43 -34 -43 -17
0 19 39 56 71 67 50 18 58 16 24 -5z m98 -3 c-13 -12 -25 -19 -29 -15 -10 10
16 37 34 37 13 0 12 -4 -5 -22z m77 14 c0 -11 -48 -53 -80 -71 l-25 -14 20 24
c47 57 59 69 72 69 7 0 13 -4 13 -8z m314 -15 c9 -12 20 -46 26 -75 11 -50 22
-63 35 -42 3 6 11 10 17 10 7 0 7 -4 -1 -13 -6 -8 -8 -17 -4 -21 4 -4 0 -4
-10 0 -16 6 -17 2 -11 -35 4 -28 3 -41 -5 -41 -6 0 -11 12 -11 26 0 15 -12 38
-30 55 -25 25 -28 34 -20 55 14 35 12 47 -3 41 -20 -8 -41 31 -26 49 16 20 26
18 43 -9z m-772 -31 c-6 -48 -12 -46 -12 5 0 22 4 38 8 35 4 -3 6 -21 4 -40z
m1068 -1 c-23 -25 -50 -33 -50 -16 0 12 21 28 45 34 11 2 22 5 24 6 3 0 -6
-10 -19 -24z m-643 -37 c-19 -24 -40 -53 -46 -66 -7 -13 -18 -21 -24 -19 -17
5 -15 32 3 32 8 0 15 9 16 20 2 36 4 40 15 25 8 -12 12 -12 16 -2 5 13 43 52
51 52 2 0 -12 -19 -31 -42z m984 9 c12 -22 12 -22 -10 -3 -11 11 -21 23 -21
28 0 14 19 -1 31 -25z m-822 7 c2 -2 -7 -4 -22 -4 -14 0 -29 5 -32 10 -6 10
42 4 54 -6z m-274 -35 c-9 -17 -19 -28 -22 -25 -6 6 23 56 32 56 3 0 -2 -14
-10 -31z m835 23 c0 -5 -18 -15 -41 -22 -22 -8 -52 -27 -66 -44 -16 -20 -21
-23 -14 -9 13 26 67 69 96 76 11 2 21 5 23 6 1 0 2 -3 2 -7z m-179 -48 c-10
-22 -22 -46 -25 -54 -3 -8 -3 1 0 20 6 31 34 82 42 75 2 -1 -6 -20 -17 -41z
m324 26 c37 -25 13 -25 -40 0 -35 16 -37 19 -15 19 14 1 39 -8 55 -19z m302
-5 c-4 -8 -14 -15 -23 -15 -16 0 -16 2 1 20 20 22 31 20 22 -5z m-52 5 c-3 -5
-18 -10 -33 -9 l-27 1 25 8 c35 11 42 11 35 0z m-267 -25 c42 -23 70 -50 74
-71 3 -16 -4 -19 -47 -20 -39 -1 -144 -8 -245 -16 -25 -2 -40 5 -40 19 0 23
74 91 113 102 40 13 109 6 145 -14z m-948 -25 c0 -5 -5 -10 -11 -10 -5 0 -7 5
-4 10 3 6 8 10 11 10 2 0 4 -4 4 -10z m1043 -14 c9 -13 22 -47 30 -77 11 -45
12 -61 1 -94 l-13 -40 6 38 c3 24 1 37 -6 37 -6 0 -11 19 -11 44 0 28 -8 59
-21 80 -23 40 -11 50 14 12z m57 -15 c0 -9 5 -22 11 -28 16 -16 24 -138 10
-148 -9 -5 -12 6 -11 37 2 45 -6 89 -20 123 -4 11 -11 29 -14 39 -6 16 -4 17
9 6 8 -7 15 -20 15 -29z m-1435 19 c3 -5 1 -10 -4 -10 -6 0 -11 5 -11 10 0 6
2 10 4 10 3 0 8 -4 11 -10z m896 -27 c-8 -15 -10 -15 -11 -2 0 17 10 32 18 25
2 -3 -1 -13 -7 -23z m633 1 c4 -10 1 -14 -6 -12 -15 5 -23 28 -10 28 5 0 13
-7 16 -16z m-1284 -4 c0 -5 -7 -10 -16 -10 -8 0 -12 5 -9 10 3 6 10 10 16 10
5 0 9 -4 9 -10z m24 -32 c-33 -36 -48 -66 -75 -143 -9 -27 -17 -43 -18 -35 0
8 6 35 15 59 8 24 13 50 10 58 -7 17 13 63 28 64 6 1 16 1 22 0 7 -1 14 5 18
14 3 8 11 15 18 15 6 0 -2 -15 -18 -32z m607 -39 c-5 -13 -10 -19 -10 -12 -1
15 10 45 15 40 3 -2 0 -15 -5 -28z m-716 -91 c-39 -79 -51 -88 -104 -87 l-46
1 38 8 c43 8 95 53 104 90 6 27 23 53 30 46 3 -2 -7 -28 -22 -58z m852 50 c-2
-7 0 -22 5 -33 9 -20 9 -20 -6 -1 -18 23 -21 46 -5 46 6 0 9 -6 6 -12z m-552
-38 c8 -13 -5 -13 -25 0 -13 8 -13 10 2 10 9 0 20 -4 23 -10z m422 -27 c-3
-10 -5 -4 -5 12 0 17 2 24 5 18 2 -7 2 -21 0 -30z m562 -47 c-6 -21 -12 -36
-14 -34 -3 2 0 21 6 42 6 21 12 36 14 34 3 -2 0 -21 -6 -42z m-143 -41 c-11
-8 -24 -15 -30 -15 -5 0 -1 7 10 15 10 8 24 14 29 14 6 0 1 -6 -9 -14z m-95
-7 c16 0 29 -4 29 -9 0 -5 -8 -9 -17 -9 -30 0 -63 12 -63 22 0 5 5 6 11 2 7
-4 25 -7 40 -6z m-1096 -28 c-6 -10 -71 -30 -95 -29 -8 0 8 9 35 19 59 22 68
23 60 10z m200 -40 c3 -5 1 -10 -4 -10 -6 0 -11 5 -11 10 0 6 2 10 4 10 3 0 8
-4 11 -10z m1094 -25 c11 -19 17 -35 13 -35 -8 0 -42 53 -42 64 0 13 9 4 29
-29z m-16 -35 c-6 -6 -33 30 -33 44 0 6 9 0 20 -14 10 -14 16 -27 13 -30z
m-369 -80 c10 -13 9 -13 -6 -1 -10 7 -18 21 -17 30 0 13 1 14 6 1 3 -8 11 -22
17 -30z m542 -8 c-2 -1 -15 3 -30 9 -19 9 -35 10 -61 2 -44 -14 -46 -2 -3 19
31 14 35 14 65 -6 17 -11 30 -22 29 -24z m-431 -22 c-3 -5 -12 -10 -18 -10 -7
0 -6 4 3 10 19 12 23 12 15 0z m471 -65 c-3 -8 -10 -15 -15 -15 -5 0 -4 11 2
25 12 25 23 16 13 -10z m-648 -24 c25 -18 38 -32 32 -36 -6 -4 -52 -17 -101
-30 -78 -20 -89 -20 -89 -7 0 21 80 102 100 102 8 0 34 -13 58 -29z m-477 -58
c13 -16 12 -17 -3 -4 -17 13 -22 21 -14 21 2 0 10 -8 17 -17z m1066 1 c-3 -3
-12 -4 -19 -1 -8 3 -5 6 6 6 11 1 17 -2 13 -5z m-727 -77 c10 -4 8 -6 -7 -6
-12 -1 -24 3 -27 8 -7 11 6 24 13 13 3 -5 13 -12 21 -15z m-780 -366 c0 -5 -9
-11 -20 -14 -22 -6 -28 8 -7 16 19 8 27 8 27 -2z m5 -41 c-3 -5 -15 -10 -26
-10 -11 0 -17 5 -14 10 3 6 15 10 26 10 11 0 17 -4 14 -10z m204 -74 c10 -12
7 -18 -18 -31 -31 -15 -31 -15 -31 9 0 21 10 33 31 35 4 1 12 -5 18 -13z
m-1109 -100 c0 -3 -4 -8 -10 -11 -5 -3 -10 -1 -10 4 0 6 5 11 10 11 6 0 10 -2
10 -4z m2388 -343 c2 -9 -7 -13 -25 -13 -16 0 -34 -5 -41 -12 -9 -9 -12 -9
-12 3 0 8 6 21 12 27 16 16 60 12 66 -5z"/>
<path d="M2455 2360 c21 -22 41 -40 44 -40 3 0 -13 18 -34 40 -21 22 -41 40
-44 40 -3 0 13 -18 34 -40z"/>
<path d="M2800 2230 c0 -5 5 -10 11 -10 5 0 7 5 4 10 -3 6 -8 10 -11 10 -2 0
-4 -4 -4 -10z"/>
<path d="M2860 2165 c13 -14 26 -25 28 -25 3 0 -5 11 -18 25 -13 14 -26 25
-28 25 -3 0 5 -11 18 -25z"/>
<path d="M2350 2041 c0 -5 -3 -18 -6 -28 -6 -16 -5 -16 9 2 19 23 21 35 7 35
-5 0 -10 -4 -10 -9z"/>
<path d="M1635 1840 c-10 -11 -16 -22 -14 -24 2 -2 12 7 22 20 22 29 17 32 -8
4z"/>
<path d="M2438 3723 c7 -3 16 -2 19 1 4 3 -2 6 -13 5 -11 0 -14 -3 -6 -6z"/>
<path d="M3720 1940 l0 -1750 295 0 295 0 0 1750 0 1750 -295 0 -295 0 0
-1750z"/>
<path d="M2345 3660 c3 -5 8 -10 11 -10 2 0 4 5 4 10 0 6 -5 10 -11 10 -5 0
-7 -4 -4 -10z"/>
<path d="M1422 1850 c0 -19 2 -27 5 -17 2 9 2 25 0 35 -3 9 -5 1 -5 -18z"/>
<path d="M4410 850 l0 -660 295 0 295 0 0 660 0 660 -295 0 -295 0 0 -660z"/>
<path d="M945 680 c-27 -7 -28 -8 -5 -8 14 0 34 3 45 8 25 11 2 11 -40 0z"/>
<path d="M835 650 c-13 -6 -15 -9 -5 -9 8 0 22 4 30 9 18 12 2 12 -25 0z"/>
<path d="M2708 493 c6 -2 18 -2 25 0 6 3 1 5 -13 5 -14 0 -19 -2 -12 -5z"/>
<path d="M2615 469 c-44 -21 -22 -19 40 5 22 8 31 15 20 15 -11 0 -38 -9 -60
-20z"/>
<path d="M2510 430 c-45 -24 -28 -24 25 0 22 10 33 19 25 19 -8 0 -31 -8 -50
-19z"/>
<path d="M2410 385 c-14 -8 -20 -14 -14 -15 5 0 19 7 30 15 24 18 16 19 -16 0z"/>
<path d="M1088 333 c7 -3 16 -2 19 1 4 3 -2 6 -13 5 -11 0 -14 -3 -6 -6z"/>
</g>
</svg>
